<?xml version="1.0" encoding="UTF-8"?>
<svg version="1.1" xmlns="http://www.w3.org/2000/svg" width="1024" height="1024">
<path d="M0 0 C337.92 0 675.84 0 1024 0 C1024 337.92 1024 675.84 1024 1024 C686.08 1024 348.16 1024 0 1024 C0 686.08 0 348.16 0 0 Z " fill="#8E12FD" transform="translate(0,0)"/>
<path d="M0 0 C23.39617362 21.29267834 41.45853335 51.34301483 43.35131836 83.60888672 C43.49761163 87.84233693 43.51861287 92.07346177 43.50708008 96.30908203 C43.50626434 97.43550613 43.50626434 97.43550613 43.50543213 98.58468628 C43.44304328 117.34750723 40.62831898 135.87910422 32.13208008 152.87158203 C25.86208008 152.54158203 19.59208008 152.21158203 13.13208008 151.87158203 C13.67477539 150.43427734 14.2174707 148.99697266 14.77661133 147.51611328 C26.87838999 115.10757819 29.71882925 83.13424319 15.13208008 50.87158203 C2.41737145 24.12581848 -19.24732264 3.29057331 -47.11791992 -7.00341797 C-68.87945873 -14.19936581 -94.65561174 -17.04821686 -116.86791992 -10.12841797 C-117.59591797 -9.9026709 -118.32391602 -9.67692383 -119.07397461 -9.44433594 C-146.69729187 -0.65406818 -170.83807096 17.60805606 -184.42260742 43.60205078 C-193.05078142 60.93645825 -197.26904514 77.54323056 -197.24291992 96.93408203 C-197.2423761 97.6168924 -197.24183228 98.29970276 -197.24127197 99.00320435 C-197.20088117 110.0539663 -196.29203443 120.31722132 -192.86791992 130.87158203 C-192.66956543 131.51981934 -192.47121094 132.16805664 -192.2668457 132.8359375 C-185.8067815 153.56261922 -173.11662632 171.42600966 -160.82739258 189.05273438 C-159.1199295 191.50904745 -157.43077305 193.97587362 -155.75463867 196.45361328 C-150.83911335 203.7127583 -145.73724895 210.78982751 -140.43945312 217.77490234 C-134.00117055 226.28649456 -127.78828443 234.99103527 -121.86791992 243.87158203 C-117.33904652 242.38602902 -115.61170696 238.74521084 -113.30541992 234.87158203 C-109.24794785 228.12493399 -109.24794785 228.12493399 -105.86791992 225.87158203 C-103.47010826 225.90855896 -101.07311998 226.02328875 -98.68041992 226.18408203 C-93.67545385 226.35297044 -90.10148738 226.14038473 -86.18041992 222.74658203 C-83.33918902 219.70726968 -80.96759444 216.45852601 -78.86791992 212.87158203 C-83.85088203 214.92188015 -83.85088203 214.92188015 -88.49291992 217.62158203 C-91.52149974 219.21557141 -92.63481119 218.83224933 -95.86791992 217.87158203 C-97.17552364 216.89829349 -98.44544795 215.87301919 -99.68041992 214.80908203 C-104.77933259 211.16823407 -109.35719717 211.41706954 -115.37109375 211.83032227 C-120.46834611 212.14139326 -120.46834611 212.14139326 -122.84057617 210.53955078 C-123.86791992 208.87158203 -123.86791992 208.87158203 -123.93041992 206.37158203 C-122.86791992 203.87158203 -122.86791992 203.87158203 -120.43041992 202.24658203 C-114.6934477 200.03231205 -108.83915865 198.32999518 -102.86791992 196.87158203 C-102.98194056 194.60017095 -103.10950497 192.32943651 -103.24291992 190.05908203 C-103.3125293 188.79451172 -103.38213867 187.52994141 -103.45385742 186.22705078 C-103.62894932 182.74402969 -103.62894932 182.74402969 -105.86791992 179.87158203 C-109.43561545 179.13551704 -109.43561545 179.13551704 -112.86791992 178.87158203 C-112.86791992 175.87158203 -112.86791992 175.87158203 -111.30541992 174.12158203 C-109.21854497 170.85516906 -110.09144901 168.54217181 -110.86791992 164.87158203 C-109.21177335 164.48939436 -107.54334968 164.15763101 -105.86791992 163.87158203 C-105.53791992 164.20158203 -105.20791992 164.53158203 -104.86791992 164.87158203 C-103.10172406 165.08177394 -101.32920654 165.2400164 -99.55541992 165.37158203 C-96.21050418 165.62166919 -93.0977324 165.9509704 -89.86791992 166.87158203 C-89.59979492 165.92283203 -89.33166992 164.97408203 -89.05541992 163.99658203 C-88.42236142 161.76038259 -87.76330951 159.53835959 -87.06713867 157.32080078 C-86.79514648 156.45068359 -86.5231543 155.58056641 -86.24291992 154.68408203 C-85.9825293 153.86552734 -85.72213867 153.04697266 -85.45385742 152.20361328 C-84.70546512 149.62576444 -84.70546512 149.62576444 -84.86791992 145.87158203 C-86.29104492 145.25283203 -86.29104492 145.25283203 -87.74291992 144.62158203 C-91.03507962 142.7779726 -91.61054931 142.25114889 -92.86791992 138.87158203 C-93.38556938 131.92977 -90.51488198 126.56407262 -86.86791992 120.87158203 C-92.77589332 122.02748987 -96.65159706 124.60623955 -101.43823242 128.21533203 C-104.59196287 130.36514185 -107.31204251 132.12388648 -111.18041992 131.49658203 C-111.73729492 131.29033203 -112.29416992 131.08408203 -112.86791992 130.87158203 C-112.37291992 127.90158203 -112.37291992 127.90158203 -111.86791992 124.87158203 C-112.46604492 125.38720703 -113.06416992 125.90283203 -113.68041992 126.43408203 C-114.40229492 126.90845703 -115.12416992 127.38283203 -115.86791992 127.87158203 C-116.85791992 127.54158203 -117.84791992 127.21158203 -118.86791992 126.87158203 C-119.43718925 120.98913229 -119.20580873 117.87823188 -115.86791992 112.93408203 C-112.46140422 107.84030151 -112.17911916 103.86669977 -112.86791992 97.87158203 C-114.18791992 97.54158203 -115.50791992 97.21158203 -116.86791992 96.87158203 C-116.86791992 94.89158203 -116.86791992 92.91158203 -116.86791992 90.87158203 C-117.52791992 90.87158203 -118.18791992 90.87158203 -118.86791992 90.87158203 C-118.8447168 91.44005859 -118.82151367 92.00853516 -118.79760742 92.59423828 C-118.67873544 97.68026081 -118.82868932 102.11337728 -120.86791992 106.87158203 C-123.49291992 108.30908203 -123.49291992 108.30908203 -125.86791992 108.87158203 C-127.11179425 105.13995905 -126.30744244 104.41426161 -124.86791992 100.87158203 C-124.58176007 98.74886118 -124.37691369 96.61427381 -124.23510742 94.47705078 C-124.10942383 92.67397461 -124.10942383 92.67397461 -123.98120117 90.83447266 C-123.90256836 89.58859375 -123.82393555 88.34271484 -123.74291992 87.05908203 C-123.61336914 85.16125977 -123.61336914 85.16125977 -123.48120117 83.22509766 C-123.26945164 80.10767405 -123.0652966 76.98994319 -122.86791992 73.87158203 C-123.52791992 73.87158203 -124.18791992 73.87158203 -124.86791992 73.87158203 C-125.15666992 74.49033203 -125.44541992 75.10908203 -125.74291992 75.74658203 C-126.86791992 77.87158203 -126.86791992 77.87158203 -128.86791992 79.87158203 C-131.99291992 79.99658203 -131.99291992 79.99658203 -134.86791992 79.87158203 C-135.53588867 78.13330078 -135.53588867 78.13330078 -135.86791992 75.87158203 C-134.79370117 73.76611328 -134.79370117 73.76611328 -133.18041992 71.68408203 C-132.66092773 70.98927734 -132.14143555 70.29447266 -131.60620117 69.57861328 C-129.68591932 67.69285335 -128.49512024 67.25507315 -125.86791992 66.87158203 C-127.22932119 62.41608696 -129.17548606 60.61723798 -132.86791992 57.87158203 C-134.2223166 55.16278868 -133.93293443 52.86224935 -133.86791992 49.87158203 C-132.21791992 49.54158203 -130.56791992 49.21158203 -128.86791992 48.87158203 C-128.86791992 50.19158203 -128.86791992 51.51158203 -128.86791992 52.87158203 C-128.20791992 52.87158203 -127.54791992 52.87158203 -126.86791992 52.87158203 C-126.83053711 51.99115234 -126.7931543 51.11072266 -126.75463867 50.20361328 C-126.68889648 49.04216797 -126.6231543 47.88072266 -126.55541992 46.68408203 C-126.49741211 45.53552734 -126.4394043 44.38697266 -126.37963867 43.20361328 C-125.54279504 37.75454747 -122.87488953 34.61760718 -118.99291992 30.87158203 C-118.28780273 30.18322266 -117.58268555 29.49486328 -116.85620117 28.78564453 C-116.20006836 28.15400391 -115.54393555 27.52236328 -114.86791992 26.87158203 C-112.13520909 24.20242262 -109.94756394 22.00004013 -107.93041992 18.74658203 C-106.12640154 16.56682373 -105.21258652 15.93948487 -102.40185547 15.38574219 C-99.43253482 15.28089149 -96.52276361 15.34849962 -93.55541992 15.49658203 C-92.52868164 15.52365234 -91.50194336 15.55072266 -90.4440918 15.57861328 C-87.91654416 15.64914949 -85.39331949 15.74764774 -82.86791992 15.87158203 C-81.71508789 20.54492188 -81.71508789 20.54492188 -83.09057617 23.48486328 C-83.69772461 24.37560547 -84.30487305 25.26634766 -84.93041992 26.18408203 C-85.89915039 27.62267578 -85.89915039 27.62267578 -86.88745117 29.09033203 C-89.02493405 32.09208313 -91.20645889 35.04475574 -93.50854492 37.92236328 C-95.26259734 40.43751315 -96.54395042 43.11071623 -97.86791992 45.87158203 C-96.97073242 45.58283203 -96.07354492 45.29408203 -95.14916992 44.99658203 C-88.03551117 42.88012158 -81.50342775 41.48294099 -74.05541992 41.49658203 C-73.36834961 41.49529297 -72.6812793 41.49400391 -71.97338867 41.49267578 C-67.13962579 41.59987617 -67.13962579 41.59987617 -64.86791992 43.87158203 C-64.04531265 51.08584778 -66.30407542 56.49197472 -69.11791992 63.05908203 C-69.51366211 64.03039062 -69.9094043 65.00169922 -70.31713867 66.00244141 C-72.37045574 70.91357191 -74.45563498 74.7516804 -77.86791992 78.87158203 C-77.82666992 80.04720703 -77.78541992 81.22283203 -77.74291992 82.43408203 C-77.78416992 83.56845703 -77.82541992 84.70283203 -77.86791992 85.87158203 C-81.05447316 88.62360529 -83.81251507 89.97234009 -87.86791992 90.87158203 C-86.96170898 90.85095703 -86.05549805 90.83033203 -85.12182617 90.80908203 C-77.15892576 90.94390363 -72.46152829 91.84094463 -66.63745117 97.37548828 C-63.43175137 101.89743568 -62.0127094 106.84361268 -60.93823242 112.23876953 C-59.23057228 120.67270809 -57.61676955 126.56984641 -50.30541992 131.62158203 C-49.19038086 132.31767578 -48.0753418 133.01376953 -46.92651367 133.73095703 C-41.39679751 137.60105212 -39.28943315 142.42009892 -37.86791992 148.87158203 C-37.75672559 150.43359764 -37.65278331 151.99614335 -37.55541992 153.55908203 C-37.23129004 157.15508902 -37.10586107 157.63958942 -34.36791992 160.30908203 C-33.54291992 160.82470703 -32.71791992 161.34033203 -31.86791992 161.87158203 C-30.13180105 165.34381977 -29.71904352 168.20992248 -30.86791992 171.87158203 C-33.34453503 174.57005114 -36.05154714 176.82889688 -38.85229492 179.18798828 C-55.35817809 193.38283913 -63.70171752 216.88851702 -65.86791992 237.87158203 C-71.55777614 239.7707742 -76.82944564 240.27844761 -82.80541992 240.49658203 C-83.68004883 240.53525391 -84.55467773 240.57392578 -85.45581055 240.61376953 C-87.59286623 240.70719273 -89.73036286 240.79043601 -91.86791992 240.87158203 C-92.85791992 243.18158203 -93.84791992 245.49158203 -94.86791992 247.87158203 C-103.11791992 247.87158203 -111.36791992 247.87158203 -119.86791992 247.87158203 C-117.29867795 252.15365199 -114.64403235 255.44038743 -111.24291992 258.99658203 C-105.84153992 264.7505792 -100.78749958 270.69783321 -95.86791992 276.87158203 C-94.80602692 278.18847797 -93.74348429 279.50485024 -92.68041992 280.82080078 C-91.57595198 282.19165185 -90.47178329 283.56274408 -89.36791992 284.93408203 C-88.83875977 285.59005371 -88.30959961 286.24602539 -87.7644043 286.921875 C-83.98329982 291.64082223 -83.98329982 291.64082223 -82.86791992 293.87158203 C-78.13927653 293.4295748 -76.35276126 291.72959743 -73.30541992 288.18408203 C-72.5294043 287.28560547 -71.75338867 286.38712891 -70.95385742 285.46142578 C-69.31972377 283.4325295 -67.82860078 281.43846706 -66.43041992 279.24658203 C-65.65698242 278.07095703 -65.65698242 278.07095703 -64.86791992 276.87158203 C-64.20791992 276.87158203 -63.54791992 276.87158203 -62.86791992 276.87158203 C-62.05249561 278.95377252 -61.24068803 281.03737964 -60.43041992 283.12158203 C-59.97795898 284.28173828 -59.52549805 285.44189453 -59.05932617 286.63720703 C-58.66616211 287.70455078 -58.27299805 288.77189453 -57.86791992 289.87158203 C-57.54694336 290.54060547 -57.2259668 291.20962891 -56.89526367 291.89892578 C-56.84628531 295.432365 -59.61722448 297.69615016 -61.86791992 300.18408203 C-62.37250732 300.75932617 -62.87709473 301.33457031 -63.39697266 301.92724609 C-74.68020206 314.68548985 -74.68020206 314.68548985 -78.75073242 315.03173828 C-83.63822548 314.81886837 -86.40651088 313.89518873 -89.93041992 310.43408203 C-91.27370504 308.94037009 -92.58591531 307.41820883 -93.86791992 305.87158203 C-94.48022461 305.13681641 -95.0925293 304.40205078 -95.72338867 303.64501953 C-97.80464176 301.07885593 -99.83379883 298.47525702 -101.86791992 295.87158203 C-102.77096021 294.7450502 -103.67602669 293.62014056 -104.58276367 292.49658203 C-110.48405806 285.18083007 -116.25018737 277.77776232 -121.93212891 270.29052734 C-125.73435238 265.30113809 -129.64144575 260.41042706 -133.61791992 255.55908203 C-138.1260637 250.05802559 -142.48055233 244.48816033 -146.71166992 238.77001953 C-148.95605032 235.7531169 -151.25054357 232.77997785 -153.55541992 229.80908203 C-202.60413538 166.32002157 -202.60413538 166.32002157 -212.86791992 129.87158203 C-213.22885742 128.63150391 -213.58979492 127.39142578 -213.96166992 126.11376953 C-221.52642701 94.24372809 -214.90629296 58.31870014 -198.18041992 30.51611328 C-179.79214951 1.0593999 -151.13814462 -20.96016594 -117.19213867 -29.19873047 C-75.87518446 -38.4129722 -31.88773723 -28.0284573 0 0 Z " fill="#F6F5FA" transform="translate(582.867919921875,249.12841796875)"/>
<path d="M0 0 C2.47335387 1.91226896 4.79291548 3.90372888 7.09375 6.01953125 C7.87234375 6.71820313 8.6509375 7.416875 9.453125 8.13671875 C22.75238753 20.67729852 31.7614519 38.99418042 32.52734375 57.3515625 C32.55086523 59.51159108 32.55170389 61.67197145 32.53125 63.83203125 C32.52295166 64.9705957 32.51465332 66.10916016 32.50610352 67.28222656 C32.13414579 85.87217051 25.66183389 102.21015512 13.09375 116.01953125 C12.27003906 116.93605469 11.44632813 117.85257813 10.59765625 118.796875 C-3.75391852 133.98163263 -23.07178513 142.54601278 -43.91357422 143.35131836 C-64.3948988 143.75727518 -83.37907471 136.00705371 -98.703125 122.56640625 C-114.27344013 107.56228439 -123.70761555 87.83355118 -124.19921875 66.10644531 C-124.36108205 45.18561412 -118.21071082 26.66685982 -103.90625 11.01953125 C-103.37773438 10.41109375 -102.84921875 9.80265625 -102.3046875 9.17578125 C-93.46982454 -0.39894708 -82.01905734 -6.60133099 -69.90625 -10.98046875 C-68.98972656 -11.32078125 -68.07320312 -11.66109375 -67.12890625 -12.01171875 C-44.605035 -18.99185676 -19.05927225 -12.98797182 0 0 Z " fill="#9015FE" transform="translate(655.90625,430.98046875)"/>
<path d="M0 0 C2.47335387 1.91226896 4.79291548 3.90372888 7.09375 6.01953125 C7.87234375 6.71820313 8.6509375 7.416875 9.453125 8.13671875 C22.75238753 20.67729852 31.7614519 38.99418042 32.52734375 57.3515625 C32.55086523 59.51159108 32.55170389 61.67197145 32.53125 63.83203125 C32.52295166 64.9705957 32.51465332 66.10916016 32.50610352 67.28222656 C32.13414579 85.87217051 25.66183389 102.21015512 13.09375 116.01953125 C12.27003906 116.93605469 11.44632813 117.85257813 10.59765625 118.796875 C-3.75391852 133.98163263 -23.07178513 142.54601278 -43.91357422 143.35131836 C-64.3948988 143.75727518 -83.37907471 136.00705371 -98.703125 122.56640625 C-114.27344013 107.56228439 -123.70761555 87.83355118 -124.19921875 66.10644531 C-124.36108205 45.18561412 -118.21071082 26.66685982 -103.90625 11.01953125 C-103.37773438 10.41109375 -102.84921875 9.80265625 -102.3046875 9.17578125 C-93.46982454 -0.39894708 -82.01905734 -6.60133099 -69.90625 -10.98046875 C-68.98972656 -11.32078125 -68.07320312 -11.66109375 -67.12890625 -12.01171875 C-44.605035 -18.99185676 -19.05927225 -12.98797182 0 0 Z M-69.90625 6.01953125 C-71.205625 6.54546875 -71.205625 6.54546875 -72.53125 7.08203125 C-87.43073577 13.78679985 -98.12913027 26.126381 -103.93359375 41.23046875 C-109.62297649 57.5446024 -109.59807895 74.46768841 -102.18994141 90.31542969 C-94.04091552 106.70586532 -82.99320203 116.96065926 -65.90625 124.01953125 C-49.84870569 129.39109412 -32.98202346 128.06843623 -17.71875 120.89453125 C-1.89583845 112.39900827 8.45145438 100.12769669 14.09375 83.01953125 C19.20459977 65.7614153 16.35006783 48.07948971 8.11328125 32.3515625 C5.03137186 27.26671007 1.34350537 23.15041234 -2.90625 19.01953125 C-3.51984375 18.3853125 -4.1334375 17.75109375 -4.765625 17.09765625 C-16.87316099 5.40405311 -33.12802346 1.51314646 -49.46875 1.59521484 C-56.7769934 1.80113925 -63.14703797 3.16564173 -69.90625 6.01953125 Z " fill="#F6F4F9" transform="translate(655.90625,430.98046875)"/>
<path d="M0 0 C1.10589478 0.00616333 1.10589478 0.00616333 2.23413086 0.01245117 C3.0352832 0.01438477 3.83643555 0.01631836 4.66186523 0.01831055 C5.49911133 0.03055664 6.33635742 0.04280273 7.19897461 0.05541992 C8.46064453 0.05638672 8.46064453 0.05638672 9.74780273 0.05737305 C15.99624277 0.10268808 15.99624277 0.10268808 17.13647461 1.24291992 C17.22925791 2.62452107 17.25394504 4.0108003 17.25 5.39550781 C17.24992447 6.27634537 17.24984894 7.15718292 17.24977112 8.06471252 C17.24460983 9.02199753 17.23944855 9.97928253 17.23413086 10.96557617 C17.23271591 11.9407872 17.23130096 12.91599823 17.22984314 13.92076111 C17.22422594 17.04901135 17.21167054 20.17719115 17.19897461 23.30541992 C17.19396182 25.42065327 17.18939854 27.53588773 17.18530273 29.65112305 C17.17425092 34.84841288 17.15749607 40.04566137 17.13647461 45.24291992 C18.42242936 44.13398509 19.70608605 43.02238499 20.98876953 41.90966797 C21.70385178 41.29093307 22.41893402 40.67219818 23.15568542 40.03471375 C25.52864518 37.88816799 27.49227168 35.58462511 29.44897461 33.05541992 C32.70352064 28.96062965 36.07108568 25.06337748 39.63647461 21.24291992 C44.01911014 16.54543768 48.10370873 11.68021777 52.06616211 6.61791992 C57.40286373 0.49581693 57.40286373 0.49581693 61.37573242 -0.08374023 C64.03708124 -0.18703924 66.66214546 -0.1550778 69.32397461 -0.06958008 C70.69585937 -0.05507813 70.69585937 -0.05507813 72.09545898 -0.0402832 C78.79759474 0.07347999 78.79759474 0.07347999 81.13647461 1.24291992 C80.635425 5.67407742 79.20070684 7.68665104 76.13647461 10.86791992 C72.86493672 14.3561843 69.75049642 17.88434034 66.76147461 21.61791992 C63.08765354 26.16219337 59.22530842 30.46166357 55.24707031 34.7355957 C50.63943209 39.71572476 46.36613444 44.93756883 42.13647461 50.24291992 C44.83897892 55.12486319 48.25598658 59.37396286 51.69897461 63.74291992 C52.97139204 65.36769911 54.24352622 66.99270015 55.51538086 68.61791992 C56.44761475 69.80708008 56.44761475 69.80708008 57.39868164 71.02026367 C60.45242969 74.92604089 63.46392152 78.86377289 66.47631836 82.80151367 C68.56783988 85.52270533 70.69453215 88.21456886 72.82788086 90.90307617 C73.46790039 91.71389648 74.10791992 92.5247168 74.76733398 93.36010742 C76.03276383 94.96204692 77.30341839 96.55987622 78.57983398 98.15307617 C79.15668945 98.88526367 79.73354492 99.61745117 80.32788086 100.37182617 C80.84552002 101.02223877 81.36315918 101.67265137 81.89648438 102.34277344 C83.1993811 104.33931709 83.79781155 105.88932213 84.13647461 108.24291992 C81.06140231 111.31799222 72.58878074 110.22519244 68.49560547 110.32006836 C63.22220001 110.17131221 59.18658578 109.9986757 55.19116211 106.32104492 C52.51036439 103.19642579 50.35594361 99.77350574 48.30102539 96.21313477 C46.6373881 93.39855344 44.6486537 90.87831205 42.63647461 88.30541992 C41.13575825 86.28511852 39.6358363 84.2642269 38.13647461 82.24291992 C35.9519439 79.32402384 33.76286366 76.4085484 31.57397461 73.49291992 C30.53093082 72.1023512 29.48795563 70.71173103 28.44506836 69.32104492 C27.68323242 68.30526367 26.92139648 67.28948242 26.13647461 66.24291992 C23.56598025 66.6101334 22.07234494 67.28736308 19.92236328 68.77734375 C17.39527544 72.26621048 17.55217221 75.54148135 17.56225586 79.69213867 C17.54100899 80.91197197 17.54100899 80.91197197 17.51933289 82.15644836 C17.47746514 84.74790764 17.46219414 87.3386701 17.44897461 89.93041992 C17.41995269 92.53255838 17.38547273 95.13451894 17.34648132 97.73652649 C17.3239292 99.35459856 17.30814933 100.97278132 17.29963684 102.59098816 C17.24606673 108.1333278 17.24606673 108.1333278 16.13647461 109.24291992 C14.73298726 109.34152123 13.32466984 109.37370929 11.91772461 109.37573242 C10.64348633 109.37766602 10.64348633 109.37766602 9.34350586 109.37963867 C8.45018555 109.37577148 7.55686523 109.3719043 6.63647461 109.36791992 C5.7431543 109.37178711 4.84983398 109.3756543 3.92944336 109.37963867 C3.07995117 109.37834961 2.23045898 109.37706055 1.35522461 109.37573242 C0.57083008 109.37460449 -0.21356445 109.37347656 -1.02172852 109.37231445 C-2.86352539 109.24291992 -2.86352539 109.24291992 -3.86352539 108.24291992 C-3.96322423 106.86882216 -3.99427114 105.48966043 -3.99723816 104.11195374 C-4.00150314 103.22156906 -4.00576813 102.33118439 -4.01016235 101.41381836 C-4.00970917 100.42937744 -4.00925598 99.44493652 -4.00878906 98.43066406 C-4.01214767 97.39985214 -4.01550629 96.36904022 -4.01896667 95.30699158 C-4.0285087 91.88067437 -4.0304214 88.45440586 -4.03149414 85.02807617 C-4.0347044 82.65775024 -4.03806829 80.28742451 -4.0415802 77.917099 C-4.04757957 72.94114726 -4.04941927 67.96521291 -4.04882812 62.98925781 C-4.04872644 56.59860009 -4.06238142 50.20805332 -4.07960033 43.81742191 C-4.0906934 38.91995222 -4.09274817 34.02250958 -4.0922184 29.12502861 C-4.09340249 26.76820938 -4.09784806 24.41138954 -4.10555077 22.0545826 C-4.11529668 18.76449839 -4.11249406 15.47465805 -4.10644531 12.18457031 C-4.11206482 11.20215363 -4.11768433 10.21973694 -4.12347412 9.20755005 C-4.11927963 8.31434555 -4.11508514 7.42114105 -4.11076355 6.50086975 C-4.11130832 5.72233171 -4.11185308 4.94379366 -4.11241436 4.14166355 C-3.75533013 1.41751145 -2.73380553 0.35636532 0 0 Z " fill="#F8F8FB" transform="translate(330.863525390625,620.757080078125)"/>
<path d="M0 0 C0.73283203 0.00773438 1.46566406 0.01546875 2.22070312 0.0234375 C2.94966797 0.01570312 3.67863281 0.00796875 4.4296875 0 C8.24158536 0.01397579 10.04131422 0.11217823 13.28320312 2.2734375 C13.65501404 5.10412598 13.65501404 5.10412598 13.65209961 8.76757812 C13.65586609 9.43455719 13.65963257 10.10153625 13.66351318 10.78872681 C13.66995703 12.24012343 13.66960494 13.69156224 13.66332817 15.14295959 C13.65422419 17.44809053 13.66443677 19.75240662 13.6799469 22.05749512 C13.72004127 28.61220971 13.72126393 35.16686288 13.71899414 41.72167969 C13.71894271 45.73123774 13.73828398 49.74036262 13.76832771 53.74980164 C13.77906779 56.00655194 13.76706735 58.2624433 13.75450134 60.51916504 C13.77821 69.90604066 14.61486166 77.73627832 20.65820312 85.2109375 C27.0830047 90.25899588 33.20313313 91.82123886 41.28320312 91.2734375 C44.03941775 90.46494788 46.63989955 89.38962241 49.28320312 88.2734375 C50.23195313 87.9640625 51.18070312 87.6546875 52.15820312 87.3359375 C54.86348025 85.98329894 55.22120943 85.08013511 56.28320312 82.2734375 C56.79882812 81.1596875 57.31445312 80.0459375 57.84570312 78.8984375 C60.02320838 73.4073373 60.40833702 68.34658871 60.44091797 62.47363281 C60.44599869 61.82248001 60.45107941 61.17132721 60.45631409 60.5004425 C60.46695084 59.09766193 60.47559681 57.6948651 60.48243332 56.29206085 C60.49429319 54.07301652 60.51375813 51.85416067 60.53555298 49.63519287 C60.59697088 43.33026333 60.65137098 37.02536158 60.68457031 30.72021484 C60.70546353 26.85520743 60.74070597 22.99055845 60.78532791 19.12575531 C60.79951265 17.65375722 60.80821593 16.1816959 60.81138229 14.70963287 C60.81626782 12.65792447 60.83935596 10.60717824 60.86669922 8.55566406 C60.87478607 7.38795471 60.88287292 6.22024536 60.89120483 5.01715088 C61.08524399 3.65901276 61.08524399 3.65901276 61.28320312 2.2734375 C65.04079498 -0.23162373 68.0034789 0.0129912 72.34570312 0.0859375 C73.07853516 0.08658203 73.81136719 0.08722656 74.56640625 0.08789062 C80.00195312 0.1328125 80.00195312 0.1328125 82.28320312 1.2734375 C82.376467 10.54959743 82.44725094 19.82559244 82.49045181 29.10212135 C82.51120095 33.41102452 82.53928222 37.71960359 82.58496094 42.02832031 C82.62887696 46.19753514 82.65243513 50.36644106 82.6627121 54.5358696 C82.67002239 56.11526722 82.68429389 57.69465066 82.70612335 59.27391434 C82.91418225 74.97066542 80.66848043 88.51199678 69.33398438 100.30078125 C58.2624239 110.5892844 45.97143757 111.86824595 31.43554688 111.58203125 C19.92201132 111.07944801 10.26455064 106.44995374 2.24804688 98.171875 C-5.25889101 89.1507989 -7.8274724 79.51467968 -7.86206055 67.92285156 C-7.86541916 67.21317734 -7.86877777 66.50350311 -7.87223816 65.77232361 C-7.88167896 63.44455177 -7.88368712 61.11685225 -7.88476562 58.7890625 C-7.88798063 57.16575084 -7.89134489 55.54243947 -7.89485168 53.91912842 C-7.90082401 50.52664517 -7.9026933 47.13418735 -7.90209961 43.74169922 C-7.90199755 39.38802668 -7.9157029 35.03451563 -7.93287182 30.6808815 C-7.94396431 27.3335291 -7.94601975 23.98621626 -7.94548988 20.63884735 C-7.94667211 19.03282866 -7.95110744 17.42680901 -7.95882225 15.82080841 C-7.96857609 13.58256984 -7.96576372 11.34468915 -7.9597168 9.10644531 C-7.96114182 7.83214661 -7.96256683 6.5578479 -7.96403503 5.24493408 C-7.51103289 -0.19959083 -4.85662186 0.01783883 0 0 Z " fill="#F7F7FB" transform="translate(226.716796875,620.7265625)"/>
<path d="M0 0 C0.96502441 0.00612305 1.93004883 0.01224609 2.92431641 0.01855469 C10.66121133 0.18722756 17.09367521 1.36598007 24.25 4.4375 C25.08273437 4.76105469 25.91546875 5.08460938 26.7734375 5.41796875 C29 6.375 29 6.375 32.25 8.4375 C33.99350781 12.92762971 32.59447653 15.94717863 30.8125 20.25 C30.10287109 21.99216797 30.10287109 21.99216797 29.37890625 23.76953125 C29.00636719 24.64996094 28.63382812 25.53039062 28.25 26.4375 C23.03859335 25.99397603 19.07012022 24.6489968 14.36328125 22.375 C7.4064417 19.28878652 -3.02510129 18.96688438 -10.28515625 21.2265625 C-13.28011054 22.89254557 -14.84602154 24.58153231 -16.75 27.4375 C-17.3712021 33.02017691 -17.3712021 33.02017691 -15.1953125 38.00390625 C-12.20696884 40.97792878 -9.16251371 42.18890396 -5.25 43.5 C-4.53948486 43.75330078 -3.82896973 44.00660156 -3.09692383 44.26757812 C1.09461946 45.74944163 5.32331537 47.0985177 9.5625 48.4375 C20.59887374 52.09629781 29.51406621 57.08869847 34.91015625 67.703125 C37.68847919 75.44678895 37.48204413 85.16818551 34.6875 92.9375 C30.47593508 101.73006536 23.86178146 107.54557442 15.03515625 111.40625 C-0.71678907 116.78132139 -20.8840902 114.39016055 -35.6875 107.25 C-38.75 105.4375 -38.75 105.4375 -39.75 104.4375 C-39.43237878 98.50857048 -38.37310157 92.30737475 -34.75 87.4375 C-31.69273938 86.24568654 -30.20591864 86.27813021 -27.1015625 87.36328125 C-26.20179688 87.82089844 -25.30203125 88.27851562 -24.375 88.75 C-14.55099048 93.44673762 -3.7629395 95.81376005 6.9375 92.1875 C10.2543364 90.43520907 11.36798585 89.56308691 13.25 86.4375 C14.16842157 81.73058944 14.05002981 77.7232622 11.5 73.625 C5.0787243 69.30298751 -2.09962649 66.93463347 -9.44189453 64.61376953 C-19.44458298 61.43787173 -29.41177163 57.23032079 -35.75 48.4375 C-40.19414802 39.74701469 -41.13039409 32.13683551 -38.1875 22.875 C-34.65267534 14.02557883 -28.20829486 7.74284829 -19.75 3.4375 C-13.15714032 0.62242956 -7.12718439 -0.07718523 0 0 Z " fill="#F9F8FB" transform="translate(461.75,618.5625)"/>
<path d="M0 0 C8.66641382 7.14935547 14.00186616 15.97817869 15.75 27.25 C15.8600837 28.76813104 15.9242647 30.29044051 15.9375 31.8125 C15.95167969 32.55628906 15.96585938 33.30007813 15.98046875 34.06640625 C15.71147222 36.61503435 15.17761176 38.11984113 13.75 40.25 C10.64063883 42.19960414 8.24967113 42.49504788 4.61425781 42.47705078 C3.59350159 42.47689972 2.57274536 42.47674866 1.52105713 42.47659302 C0.42613953 42.46627045 -0.66877808 42.45594788 -1.796875 42.4453125 C-3.48638275 42.44106766 -3.48638275 42.44106766 -5.21002197 42.43673706 C-8.80678946 42.42554374 -12.40330779 42.40044037 -16 42.375 C-18.43879849 42.36496912 -20.87760088 42.35584346 -23.31640625 42.34765625 C-29.29435582 42.32560716 -35.27216011 42.29213784 -41.25 42.25 C-40.82141635 43.85728293 -40.37853084 45.46075657 -39.9296875 47.0625 C-39.68460449 47.95582031 -39.43952148 48.84914063 -39.18701172 49.76953125 C-37.4694664 54.31623798 -34.34960797 56.190806 -30.06640625 58.3515625 C-26.3925125 59.5235397 -22.88179512 59.63259639 -19.0625 59.625 C-18.3101709 59.62483887 -17.5578418 59.62467773 -16.78271484 59.62451172 C-9.2502299 59.47065533 -3.50440113 57.41960076 2.75 53.25 C5.25390625 53.26171875 5.25390625 53.26171875 7.75 54.25 C9.40234375 56.83203125 9.40234375 56.83203125 10.6875 60.0625 C11.12964844 61.12082031 11.57179688 62.17914062 12.02734375 63.26953125 C12.75 66.25 12.75 66.25 12.1640625 68.4765625 C7.07184932 74.8629293 -4.37065701 77.56172947 -12.125 78.9375 C-13.49800646 79.06528476 -14.8735264 79.16756147 -16.25 79.25 C-17.09433594 79.30285156 -17.93867187 79.35570312 -18.80859375 79.41015625 C-30.81453522 79.80183945 -41.9329458 76.28568769 -50.9375 68.1875 C-60.53599107 57.96399091 -62.88059205 44.95136615 -62.5625 31.515625 C-61.97702672 20.53800096 -57.04728864 10.46030994 -49 3 C-35.59789993 -7.7157103 -14.44008037 -10.13243914 0 0 Z " fill="#FBF9FD" transform="translate(733.25,653.75)"/>
<path d="M0 0 C0.88051025 0.00161133 1.76102051 0.00322266 2.66821289 0.00488281 C11.01302678 0.16113265 17.89724118 1.87941893 25.1875 6 C34.17821135 16.0484421 35.62366426 26.14057415 35.54296875 39.15234375 C35.54251053 40.35943497 35.54205231 41.56652618 35.5415802 42.81019592 C35.53857111 45.34751373 35.53072532 47.88482992 35.51831055 50.42211914 C35.49994683 54.32379621 35.49780178 58.22523717 35.49804688 62.12695312 C35.4931353 64.59375207 35.48730857 67.0605494 35.48046875 69.52734375 C35.47935593 70.70014389 35.4782431 71.87294403 35.47709656 73.08128357 C35.47071671 74.15652786 35.46433685 75.23177216 35.45776367 76.33959961 C35.45395187 77.29031845 35.45014008 78.24103729 35.44621277 79.2205658 C35.3125 81.375 35.3125 81.375 34.3125 82.375 C32.96982587 82.46131874 31.62275678 82.48206473 30.27734375 82.47265625 C29.46845703 82.46943359 28.65957031 82.46621094 27.82617188 82.46289062 C26.97603516 82.45451172 26.12589844 82.44613281 25.25 82.4375 C24.39599609 82.43298828 23.54199219 82.42847656 22.66210938 82.42382812 C20.54554337 82.41200373 18.42901315 82.39406769 16.3125 82.375 C15.9825 80.395 15.6525 78.415 15.3125 76.375 C14.76722656 76.77332031 14.22195313 77.17164063 13.66015625 77.58203125 C3.99875503 84.36978493 -4.49862799 86.78019482 -16.29296875 84.9765625 C-23.18244758 83.33163267 -28.23779047 79.87596474 -32.6875 74.375 C-36.54472144 67.31555699 -38.12786296 59.93613647 -36.09765625 52.09765625 C-33.3823763 44.77766193 -28.12812231 39.45960242 -21.07519531 36.14868164 C-13.05648572 33.32736124 -5.88984313 32.88638879 2.5625 33.125 C3.79613281 33.14304687 5.02976562 33.16109375 6.30078125 33.1796875 C9.30553791 33.22627287 12.30857674 33.29166453 15.3125 33.375 C15.04295153 31.92485937 14.75889939 30.47740959 14.46875 29.03125 C14.31212891 28.22494141 14.15550781 27.41863281 13.99414062 26.58789062 C12.99486989 23.34383979 11.15789793 22.08223876 8.3125 20.375 C2.31852501 17.3780125 -8.07559716 18.56829999 -14.3046875 20.4921875 C-16.28573983 21.36661708 -18.24616227 22.29088345 -20.171875 23.28125 C-22.89268102 24.46420914 -24.75428807 24.58602244 -27.6875 24.375 C-29.22016582 21.30966836 -28.79026471 18.10745728 -28.75 14.75 C-28.74548828 14.04359375 -28.74097656 13.3371875 -28.73632812 12.609375 C-28.72453875 10.86454725 -28.70660324 9.119763 -28.6875 7.375 C-26.83551206 6.57824985 -24.9807889 5.78785639 -23.125 5 C-22.09246094 4.55914063 -21.05992187 4.11828125 -19.99609375 3.6640625 C-13.17283333 1.00564935 -7.26079257 -0.01380248 0 0 Z " fill="#FAF8FC" transform="translate(544.6875,647.625)"/>
<path d="M0 0 C2.93804996 -0.08086376 5.87388075 -0.1404283 8.8125 -0.1875 C9.64587891 -0.21263672 10.47925781 -0.23777344 11.33789062 -0.26367188 C12.54155273 -0.27817383 12.54155273 -0.27817383 13.76953125 -0.29296875 C14.87711792 -0.31653442 14.87711792 -0.31653442 16.00708008 -0.34057617 C18.69889783 0.11943679 19.38097874 0.79593294 21 3 C21.98908004 5.2800363 22.85745901 7.50312486 23.671875 9.84375 C24.03714294 10.86020096 24.03714294 10.86020096 24.40979004 11.89718628 C25.19782002 14.09537354 25.97403374 16.29752861 26.75 18.5 C27.28660657 20.00501565 27.82404334 21.50973554 28.36230469 23.01416016 C29.16415049 25.25599421 29.96528112 27.4980575 30.76300049 29.74136353 C33.13505771 36.40914827 35.59607902 43.04250665 38.12011719 49.65429688 C39.21946786 52.58868537 40 54.83706189 40 58 C40.66 58 41.32 58 42 58 C42.17764893 56.71440186 42.17764893 56.71440186 42.35888672 55.40283203 C43.0145517 51.92276406 44.01715795 48.86909782 45.2578125 45.5546875 C45.71551025 44.32137695 46.17320801 43.08806641 46.64477539 41.81738281 C47.1380897 40.50321996 47.63149967 39.18909301 48.125 37.875 C49.12897342 35.18067692 50.1292773 32.48500005 51.12890625 29.7890625 C51.37630051 29.12314087 51.62369476 28.45721924 51.87858582 27.77111816 C54.33349595 21.14289646 56.65236641 14.46879472 58.89306641 7.76513672 C60.78602988 2.21397012 60.78602988 2.21397012 63 0 C64.86352539 -0.24291992 64.86352539 -0.24291992 67.09765625 -0.23046875 C67.89880859 -0.22853516 68.69996094 -0.22660156 69.52539062 -0.22460938 C70.36263672 -0.21236328 71.19988281 -0.20011719 72.0625 -0.1875 C73.32416992 -0.1865332 73.32416992 -0.1865332 74.61132812 -0.18554688 C80.85976816 -0.14023184 80.85976816 -0.14023184 82 1 C81.59313984 7.05802193 80.10079697 12.00244746 77.7890625 17.58203125 C77.46482803 18.38636093 77.14059357 19.19069061 76.80653381 20.01939392 C75.75522905 22.62094071 74.69049599 25.21673705 73.625 27.8125 C72.89612007 29.60613211 72.16801631 31.40007982 71.44067383 33.19433594 C69.9860405 36.77888356 68.52609006 40.36119488 67.06201172 43.94189453 C65.21990221 48.4518207 63.40381635 52.97167593 61.59765625 57.49609375 C61.0951689 58.7497052 60.59241246 60.00320883 60.08935547 61.2565918 C59.17752268 63.52886894 58.26882298 65.80240671 57.36376953 68.07739258 C56.95884277 69.07794678 56.55391602 70.07850098 56.13671875 71.109375 C55.79342529 71.96499023 55.45013184 72.82060547 55.09643555 73.70214844 C53.92630572 76.15444457 52.90005566 78.04667175 51 80 C48.73168945 80.45410156 48.73168945 80.45410156 46.11328125 80.390625 C45.17548828 80.37773438 44.23769531 80.36484375 43.27148438 80.3515625 C42.29501953 80.31804687 41.31855469 80.28453125 40.3125 80.25 C39.32443359 80.23195313 38.33636719 80.21390625 37.31835938 80.1953125 C34.87788257 80.14815353 32.43959403 80.07894287 30 80 C25.44674093 71.27205039 21.55253248 62.35867986 17.91015625 53.22265625 C17.35591169 51.83927691 16.80158367 50.45593101 16.24717712 49.07261658 C15.09799651 46.20090315 13.95332741 43.32743764 12.8112793 40.45288086 C11.34864984 36.77395351 9.86919945 33.10203572 8.38578129 29.43145084 C7.24038743 26.58931513 6.10661634 23.74264944 4.97604179 20.89459038 C4.43522186 19.5377545 3.89017715 18.18259443 3.34077644 16.82921028 C2.57705717 14.9444999 1.83120792 13.05257803 1.08618164 11.16040039 C0.4438131 9.55256432 0.4438131 9.55256432 -0.21153259 7.9122467 C-1.05389397 4.80093974 -0.91090312 3.05612154 0 0 Z " fill="#FAF8FC" transform="translate(587,650)"/>
<path d="M0 0 C1.71484375 1.50390625 1.71484375 1.50390625 2.27734375 3.75390625 C1.46356678 7.73237145 -0.76878344 10.38540138 -3.28515625 13.50390625 C-5.77431391 13.08904664 -7.87126606 12.73784418 -10.08203125 11.48828125 C-12.90794069 10.22564086 -15.19755574 10.16750126 -18.28515625 10.12890625 C-19.31640625 10.10054688 -20.34765625 10.0721875 -21.41015625 10.04296875 C-24.99966423 10.61846052 -26.11195556 11.63648867 -28.28515625 14.50390625 C-29.61809955 17.82579637 -29.38617145 21.21050762 -29.34765625 24.75390625 C-29.33863281 25.8315625 -29.32960938 26.90921875 -29.3203125 28.01953125 C-29.30871094 28.839375 -29.29710937 29.65921875 -29.28515625 30.50390625 C-28.68453369 30.49866943 -28.08391113 30.49343262 -27.46508789 30.48803711 C-24.75928787 30.46732611 -22.05350448 30.454265 -19.34765625 30.44140625 C-18.40212891 30.43302734 -17.45660156 30.42464844 -16.48242188 30.41601562 C-15.13374023 30.41118164 -15.13374023 30.41118164 -13.7578125 30.40625 C-12.50883179 30.39839478 -12.50883179 30.39839478 -11.23461914 30.39038086 C-9.28515625 30.50390625 -9.28515625 30.50390625 -8.28515625 31.50390625 C-8.18641809 33.50190197 -8.15543826 35.50347783 -8.16015625 37.50390625 C-8.15628906 39.14359375 -8.15628906 39.14359375 -8.15234375 40.81640625 C-8.28515625 43.50390625 -8.28515625 43.50390625 -9.28515625 44.50390625 C-12.14393534 44.74091864 -14.98398922 44.92609807 -17.84765625 45.06640625 C-18.65396484 45.10958984 -19.46027344 45.15277344 -20.29101562 45.19726562 C-22.2888443 45.30365887 -24.28697695 45.40431513 -26.28515625 45.50390625 C-26.94515625 50.45390625 -27.60515625 55.40390625 -28.28515625 60.50390625 C-24.96324219 60.46910156 -24.96324219 60.46910156 -21.57421875 60.43359375 C-19.43294854 60.41800311 -17.29168461 60.40585505 -15.15039062 60.39404297 C-13.66045305 60.38397582 -12.17053528 60.37032107 -10.68066406 60.35302734 C-8.54096597 60.32880972 -6.40152872 60.31743061 -4.26171875 60.30859375 C-2.97346191 60.29812012 -1.68520508 60.28764648 -0.35791016 60.27685547 C2.71484375 60.50390625 2.71484375 60.50390625 4.71484375 62.50390625 C4.98046875 64.78125 4.98046875 64.78125 4.96484375 67.44140625 C4.97257813 68.75431641 4.97257813 68.75431641 4.98046875 70.09375 C4.71484375 72.50390625 4.71484375 72.50390625 2.71484375 75.50390625 C0.43774414 75.87812805 0.43774414 75.87812805 -2.4375 75.8762207 C-3.51201416 75.88244949 -4.58652832 75.88867828 -5.69360352 75.89509583 C-6.85819092 75.88588608 -8.02277832 75.87667633 -9.22265625 75.8671875 C-10.41366943 75.867686 -11.60468262 75.86818451 -12.83178711 75.86869812 C-15.35369533 75.86635422 -17.87560573 75.85660729 -20.39746094 75.84008789 C-24.26909184 75.81650411 -28.14003435 75.81952373 -32.01171875 75.82617188 C-34.45703538 75.82059522 -36.90234909 75.81348543 -39.34765625 75.8046875 C-40.51224365 75.80559891 -41.67683105 75.80651031 -42.87670898 75.80744934 C-43.95122314 75.79791733 -45.0257373 75.78838531 -46.1328125 75.77856445 C-47.55605835 75.77165337 -47.55605835 75.77165337 -49.00805664 75.76460266 C-51.28515625 75.50390625 -51.28515625 75.50390625 -53.28515625 73.50390625 C-53.55078125 70.97265625 -53.55078125 70.97265625 -53.53515625 68.00390625 C-53.5403125 67.02421875 -53.54546875 66.04453125 -53.55078125 65.03515625 C-53.28515625 62.50390625 -53.28515625 62.50390625 -51.28515625 60.50390625 C-48.96240448 60.10343181 -46.62776268 59.76419585 -44.28515625 59.50390625 C-43.23100445 56.34145084 -42.97239953 53.63442407 -42.72265625 50.31640625 C-42.63886719 49.22972656 -42.55507813 48.14304687 -42.46875 47.0234375 C-42.37787109 45.77626953 -42.37787109 45.77626953 -42.28515625 44.50390625 C-42.99542969 44.51550781 -43.70570313 44.52710938 -44.4375 44.5390625 C-45.35660156 44.54808594 -46.27570312 44.55710937 -47.22265625 44.56640625 C-48.13917969 44.57800781 -49.05570313 44.58960938 -50 44.6015625 C-52.28515625 44.50390625 -52.28515625 44.50390625 -53.28515625 43.50390625 C-53.38389441 41.50591053 -53.41487424 39.50433467 -53.41015625 37.50390625 C-53.41273438 36.41078125 -53.4153125 35.31765625 -53.41796875 34.19140625 C-53.28515625 31.50390625 -53.28515625 31.50390625 -52.28515625 30.50390625 C-49.61456774 30.36275464 -46.96083387 30.46143518 -44.28515625 30.50390625 C-44.33736328 28.80234375 -44.33736328 28.80234375 -44.390625 27.06640625 C-44.60111764 17.42969005 -44.66417687 10.52416545 -39.09765625 2.25390625 C-28.44469993 -8.16231771 -12.13925504 -7.94758065 0 0 Z " fill="#F8F6FB" transform="translate(632.28515625,459.49609375)"/>
<path d="M0 0 C1.61113913 1.61113913 1.17053725 3.34038036 1.1875 5.5625 C1.08967391 16.91032609 1.08967391 16.91032609 -2 20 C-4.05882496 20.29748401 -6.12233332 20.56281318 -8.1875 20.8125 C-14.80493441 21.79098154 -18.35072648 22.98530944 -22.8125 28.0625 C-24.76196508 31.24320619 -25.13049344 33.88700138 -25.17358398 37.53149414 C-25.18707382 38.44576675 -25.20056366 39.36003937 -25.21446228 40.30201721 C-25.22490067 41.28645309 -25.23533905 42.27088898 -25.24609375 43.28515625 C-25.27901578 45.36263468 -25.31222769 47.44010854 -25.34570312 49.51757812 C-25.39323922 52.79855362 -25.43770271 56.07950842 -25.47680664 59.3605957 C-25.51637697 62.52314136 -25.56793998 65.68531392 -25.62109375 68.84765625 C-25.6295079 69.83411636 -25.63792206 70.82057648 -25.64659119 71.83692932 C-25.66323318 72.74804977 -25.67987518 73.65917023 -25.69702148 74.59790039 C-25.71248268 75.80344322 -25.71248268 75.80344322 -25.72825623 77.03334045 C-26 79 -26 79 -28 81 C-29.86352539 81.24291992 -29.86352539 81.24291992 -32.09765625 81.23046875 C-32.89880859 81.22853516 -33.69996094 81.22660156 -34.52539062 81.22460938 C-35.36263672 81.21236328 -36.19988281 81.20011719 -37.0625 81.1875 C-37.90361328 81.18685547 -38.74472656 81.18621094 -39.61132812 81.18554688 C-45.85976816 81.14023184 -45.85976816 81.14023184 -47 80 C-47.11089649 77.60742387 -47.15738152 75.24343427 -47.16113281 72.84985352 C-47.16609772 72.10189514 -47.17106262 71.35393677 -47.17617798 70.58331299 C-47.19083426 68.09850154 -47.19760696 65.6137539 -47.203125 63.12890625 C-47.20887316 61.40876767 -47.21463093 59.68862912 -47.22039795 57.9684906 C-47.23091751 54.35781555 -47.23675406 50.74716284 -47.24023438 47.13647461 C-47.24572421 42.50122492 -47.2697585 37.86626824 -47.29820633 33.23111057 C-47.31679396 29.67700833 -47.32203621 26.12297724 -47.32357025 22.56883049 C-47.3266056 20.85953098 -47.33466361 19.15023298 -47.34775543 17.44098091 C-47.36473723 15.05360488 -47.3629555 12.66695228 -47.35644531 10.27954102 C-47.3656601 9.56829575 -47.37487488 8.85705048 -47.3843689 8.12425232 C-47.36749268 6.15699768 -47.36749268 6.15699768 -47 3 C-43.31912647 0.54608431 -40.55644412 0.77197241 -36.3125 0.875 C-35.2596582 0.88853516 -35.2596582 0.88853516 -34.18554688 0.90234375 C-32.45688475 0.92586296 -30.72839855 0.96173287 -29 1 C-27.39274365 4.21451269 -27.94251815 7.43612536 -28 11 C-27.34 11 -26.68 11 -26 11 C-25.773125 10.4225 -25.54625 9.845 -25.3125 9.25 C-19.80957491 -0.18358588 -9.79731089 -0.72884144 0 0 Z " fill="#FBFAFD" transform="translate(808,649)"/>
<path d="M0 0 C0.97066406 0.00064453 1.94132813 0.00128906 2.94140625 0.00195312 C10.10956743 0.04706743 10.10956743 0.04706743 11.25 1.1875 C11.60538322 6.51824833 11.73609145 9.88798722 8.25 14.1875 C2.02297542 20.00841428 -2.76464074 21.65121201 -11.1484375 21.515625 C-14.66171491 21.07250893 -16.4283057 19.81875354 -18.75 17.1875 C-20.35430264 13.97889471 -20.23105318 10.6684543 -19.75 7.1875 C-15.11953674 -0.70143741 -8.22653257 -0.10546837 0 0 Z " fill="#9216FE" transform="translate(548.75,694.8125)"/>
<path d="M0 0 C3.70436557 2.12963527 5.75425767 4.47762015 7.625 8.375 C7.625 10.355 7.625 12.335 7.625 14.375 C-4.255 14.375 -16.135 14.375 -28.375 14.375 C-27.29388081 7.88828489 -26.0836507 5.59361013 -21.375 1.375 C-14.6930126 -2.60849249 -7.13666501 -3.17628108 0 0 Z " fill="#9819FE" transform="translate(720.375,666.625)"/>
<path d="M0 0 C0.99 0.66 1.98 1.32 3 2 C1.576875 2.99 1.576875 2.99 0.125 4 C-3.71655425 7.14391351 -4.18867918 10.21320716 -5 15 C-2.36 14.67 0.28 14.34 3 14 C3.99 11.03 4.98 8.06 6 5 C6.66 5 7.32 5 8 5 C8.93213141 11.26039609 9.20927172 16.02197063 7 22 C8.65 22 10.3 22 12 22 C11.01 22.99 10.02 23.98 9 25 C7.35 24.01 5.7 23.02 4 22 C4.33 20.35 4.66 18.7 5 17 C4.30132812 17.03480469 3.60265625 17.06960938 2.8828125 17.10546875 C1.97273438 17.13253906 1.06265625 17.15960938 0.125 17.1875 C-0.77992188 17.22230469 -1.68484375 17.25710938 -2.6171875 17.29296875 C-3.79667969 17.14794922 -3.79667969 17.14794922 -5 17 C-7 14 -7 14 -7 11.3125 C-5.62753305 6.76620323 -3.00379872 3.61925595 0 0 Z " fill="#7E0DFD" transform="translate(450,335)"/>
<path d="M0 0 C-0.11429397 1.77155654 -0.24183037 3.54226229 -0.375 5.3125 C-0.44460938 6.29863281 -0.51421875 7.28476562 -0.5859375 8.30078125 C-1 11 -1 11 -3 14 C-4.9453125 14.29296875 -4.9453125 14.29296875 -7.125 14.1875 C-9.043125 14.0946875 -9.043125 14.0946875 -11 14 C-11.34145336 10.32937634 -11.30049843 8.47857157 -9.3125 5.3125 C-6.62503185 2.62503185 -3.96647016 0 0 0 Z " fill="#F6F1F8" transform="translate(456,336)"/>
<path d="M0 0 C0.66 0 1.32 0 2 0 C3.66349319 3.32698637 3.24378057 7.06429385 3.31640625 10.7265625 C3.33718735 11.58937836 3.35796844 12.45219421 3.37937927 13.34115601 C3.44486034 16.10235493 3.50375298 18.86365038 3.5625 21.625 C3.6056866 23.49480172 3.64930093 25.36459362 3.69335938 27.234375 C3.80054024 31.82281728 3.90181175 36.41135683 4 41 C4.99 40.505 4.99 40.505 6 40 C5.1875 41.9375 5.1875 41.9375 4 44 C2.515 44.495 2.515 44.495 1 45 C0.67 30.15 0.34 15.3 0 0 Z " fill="#7D06FE" transform="translate(347,621)"/>
<path d="M0 0 C0.66 0.33 1.32 0.66 2 1 C0.02 3.97 0.02 3.97 -2 7 C-0.14966456 8.85033544 2.88923543 8.21843929 5.37109375 8.28125 C7.31532227 8.33732422 7.31532227 8.33732422 9.29882812 8.39453125 C10.67837155 8.43022745 12.05792922 8.46537725 13.4375 8.5 C16.12391794 8.56759476 18.8099131 8.64135384 21.49609375 8.71875 C22.69419678 8.74904297 23.8922998 8.77933594 25.12670898 8.81054688 C28 9 28 9 30 10 C30.33 9.01 30.66 8.02 31 7 C31 8.32 31 9.64 31 11 C19.12 11 7.24 11 -5 11 C-4.04991005 5.29946029 -3.628301 3.9794269 0 0 Z " fill="#8C0BFE" transform="translate(697,670)"/>
<path d="M0 0 C-1.11977634 2.84250916 -2.27671476 5.53293214 -3.6875 8.25 C-5.28380792 12.81087977 -5.40540313 16.36771731 -4 21 C-2.12143733 23.1044206 -2.12143733 23.1044206 0 24 C-2.375 23.6875 -2.375 23.6875 -5 23 C-7.92802119 18.60796821 -7.39282782 14.33386579 -7.55859375 9.15234375 C-7.77708984 7.59193359 -7.77708984 7.59193359 -8 6 C-8.99 5.34 -9.98 4.68 -11 4 C-7.26280719 0.48264206 -5.13496308 -0.47767098 0 0 Z " fill="#7D0DFD" transform="translate(496,370)"/>
<path d="M0 0 C0.66 0 1.32 0 2 0 C2.0270043 1.45823212 2.04639787 2.91660675 2.0625 4.375 C2.07410156 5.18710937 2.08570313 5.99921875 2.09765625 6.8359375 C2 9 2 9 1 11 C-1.5625 11.625 -1.5625 11.625 -4 12 C-4.33 10.68 -4.66 9.36 -5 8 C-5.969375 7.855625 -6.93875 7.71125 -7.9375 7.5625 C-11 7 -11 7 -12 6 C-12.04063832 4.33382885 -12.042721 2.66611905 -12 1 C-11.34 2.32 -10.68 3.64 -10 5 C-7.16848027 5.41809201 -7.16848027 5.41809201 -4 5 C-1.73122465 2.58119071 -1.73122465 2.58119071 0 0 Z " fill="#7C0BFD" transform="translate(458,323)"/>
<path d="M0 0 C2.400141 2.21537974 4.00117954 4.46037543 5.63671875 7.28125 C6.37390137 8.53760254 6.37390137 8.53760254 7.12597656 9.81933594 C7.6412793 10.70395508 8.15658203 11.58857422 8.6875 12.5 C13.10169958 19.98237725 17.65182639 27.14175384 23 34 C22.67 34.66 22.34 35.32 22 36 C21.4225 35.2575 20.845 34.515 20.25 33.75 C18.15394615 31.04950512 18.15394615 31.04950512 16 29.1875 C13.83074714 26.81487969 12.63085869 24.37449073 11.2734375 21.48046875 C9.07550354 17.19921703 6.40167766 13.19582217 3.8046875 9.1484375 C2.07690816 6.1341731 0.96887919 3.32615228 0 0 Z " fill="#760FFC" transform="translate(381,409)"/>
<path d="M0 0 C1.77178425 2.65767637 2.64746624 4.66019788 3.6875 7.625 C7.45515094 17.07162846 12.91536726 22.49682807 21.64453125 27.58984375 C24 29 24 29 26 31 C18.14570084 29.82668642 10.79913825 24.25974555 6 18 C2.3485123 12.12199541 0.38363353 6.90540356 0 0 Z " fill="#760DFE" transform="translate(219,699)"/>
<path d="M0 0 C1.65 0.33 3.3 0.66 5 1 C5.625 2.8125 5.625 2.8125 6 5 C4 8 4 8 0.875 8.6875 C-0.07375 8.790625 -1.0225 8.89375 -2 9 C-2.6875 6.75 -2.6875 6.75 -3 4 C-1.5625 1.6875 -1.5625 1.6875 0 0 Z " fill="#F3E8F7" transform="translate(472,385)"/>
<path d="M0 0 C0 0.66 0 1.32 0 2 C0.66 2.33 1.32 2.66 2 3 C-7.36085176 5.26439611 -16.44349683 5.20166126 -26 5 C-26.33 4.34 -26.66 3.68 -27 3 C-26.42032471 2.98018066 -25.84064941 2.96036133 -25.2434082 2.93994141 C-22.59934063 2.84427399 -19.9560183 2.73476547 -17.3125 2.625 C-15.94448242 2.57859375 -15.94448242 2.57859375 -14.54882812 2.53125 C-9.52759798 2.31214178 -4.69202185 0 0 0 Z " fill="#EFE1F9" transform="translate(627,569)"/>
<path d="M0 0 C0.66 0.33 1.32 0.66 2 1 C1.34 1.66 0.68 2.32 0 3 C-0.58442963 5.87237733 -0.58442963 5.87237733 0 9 C1.62339805 10.70884005 3.29319053 12.37446717 5 14 C6.3125 17.3125 6.3125 17.3125 7 20 C1.25 23.875 1.25 23.875 -1 25 C0.36983503 21.83884224 0.9890638 21.0072908 4 19 C3.67 18.01 3.34 17.02 3 16 C1.68 16 0.36 16 -1 16 C-1.41787052 14.0880169 -1.80853809 12.1700737 -2.1875 10.25 C-2.40792969 9.18265625 -2.62835938 8.1153125 -2.85546875 7.015625 C-3 4 -3 4 -1.55078125 1.609375 C-1.03902344 1.07828125 -0.52726562 0.5471875 0 0 Z " fill="#7809FC" transform="translate(450,296)"/>
<path d="M0 0 C0.66 0.33 1.32 0.66 2 1 C-1.30303 4.61760428 -4.95417671 7.09793381 -9.0625 9.6875 C-9.68705078 10.09033203 -10.31160156 10.49316406 -10.95507812 10.90820312 C-13.61412609 12.60238843 -15.99693027 13.99897676 -19 15 C-19 13.68 -19 12.36 -19 11 C-17.63875 10.6596875 -17.63875 10.6596875 -16.25 10.3125 C-12.85707379 9.25763861 -12.85707379 9.25763861 -11 6.4375 C-9 4 -9 4 -5.9375 3.25 C-4.968125 3.1675 -3.99875 3.085 -3 3 C-2.01 2.67 -1.02 2.34 0 2 C0 1.34 0 0.68 0 0 Z " fill="#740CFC" transform="translate(435,229)"/>
<path d="M0 0 C0.99 0.66 1.98 1.32 3 2 C1.576875 2.99 1.576875 2.99 0.125 4 C-3.71655425 7.14391351 -4.18867918 10.21320716 -5 15 C0.1693489 14.59443869 0.1693489 14.59443869 5 13 C4.67 13.99 4.34 14.98 4 16 C1.03 16.33 -1.94 16.66 -5 17 C-7 14 -7 14 -7 11.3125 C-5.62753305 6.76620323 -3.00379872 3.61925595 0 0 Z " fill="#7809FC" transform="translate(450,335)"/>
<path d="M0 0 C2.08143847 1.79760595 2.97163034 2.91691742 3.875 5.5625 C4.8047828 8.2440215 4.8047828 8.2440215 7.625 9.3125 C8.800625 9.6528125 8.800625 9.6528125 10 10 C10.33 9.34 10.66 8.68 11 8 C11.433125 8.61875 11.86625 9.2375 12.3125 9.875 C13.99740483 12.2197245 13.99740483 12.2197245 17 14 C14 15 14 15 11.125 13.8125 C5.59718254 10.60636587 2.48001042 8.00423574 0 2 C0 1.34 0 0.68 0 0 Z " fill="#7D12FD" transform="translate(242,697)"/>
<path d="M0 0 C0.33 0 0.66 0 1 0 C1 5.94 1 11.88 1 18 C-1.97 18.33 -4.94 18.66 -8 19 C-8 18.34 -8 17.68 -8 17 C-4.535 16.505 -4.535 16.505 -1 16 C-1.01160156 15.26394531 -1.02320313 14.52789062 -1.03515625 13.76953125 C-1.04417969 12.79371094 -1.05320312 11.81789063 -1.0625 10.8125 C-1.07410156 9.84957031 -1.08570313 8.88664062 -1.09765625 7.89453125 C-1.00486622 5.14423487 -0.62111685 2.67520409 0 0 Z " fill="#8107FE" transform="translate(587,472)"/>
<path d="M0 0 C0.66 0 1.32 0 2 0 C2.6090672 5.48160484 2.13150373 8.24585834 -0.9375 12.875 C-4.23677129 17.87436639 -4.97478553 22.07459968 -5 28 C-5.33 28 -5.66 28 -6 28 C-6.57816729 21.01059989 -6.36181595 16.68649799 -2.1796875 10.9921875 C-0.15662042 7.57574972 -0.09928076 3.8990264 0 0 Z " fill="#760BFD" transform="translate(469,349)"/>
<path d="M0 0 C0.66 0 1.32 0 2 0 C1.46048934 6.68993219 0.11293829 12.63460728 -2 19 C-2.33 19 -2.66 19 -3 19 C-3 14.05 -3 9.1 -3 4 C-2.34 3.67 -1.68 3.34 -1 3 C-0.67 2.01 -0.34 1.02 0 0 Z " fill="#790CFB" transform="translate(371,302)"/>
<path d="M0 0 C1 2 1 2 0.4765625 3.83984375 C0.19554687 4.53207031 -0.08546875 5.22429687 -0.375 5.9375 C-0.65085937 6.62714844 -0.92671875 7.31679688 -1.2109375 8.02734375 C-1.60152344 9.00380859 -1.60152344 9.00380859 -2 10 C-2.33 10.99 -2.66 11.98 -3 13 C-3.66 13.66 -4.32 14.32 -5 15 C-5.39764263 16.98821313 -5.73775349 18.98944339 -6 21 C-6.99 19.68 -7.98 18.36 -9 17 C-7.21873667 13.3655031 -5.29802134 9.81115063 -3.375 6.25 C-2.88773437 5.34701172 -2.88773437 5.34701172 -2.390625 4.42578125 C-1.59429415 2.95022703 -0.79722161 1.47507314 0 0 Z " fill="#780AFD" transform="translate(513,313)"/>
<path d="M0 0 C1.32 0 2.64 0 4 0 C4 0.99 4 1.98 4 3 C3.34 3 2.68 3 2 3 C2.66 5.97 3.32 8.94 4 12 C-0.90405117 7.8315565 -0.90405117 7.8315565 -1.375 3.75 C-1 1 -1 1 0 0 Z " fill="#F0E6F7" transform="translate(450,298)"/>
<path d="M0 0 C0 0.33 0 0.66 0 1 C-5.28 1 -10.56 1 -16 1 C-15 -1 -15 -1 -12.125 -2.1875 C-7.6684971 -3.34619075 -4.29130278 -1.43043426 0 0 Z " fill="#7D0CFD" transform="translate(510,340)"/>
<path d="M0 0 C0.66 0 1.32 0 2 0 C2.67812114 1.8708878 3.3419946 3.74694293 4 5.625 C4.37125 6.66914063 4.7425 7.71328125 5.125 8.7890625 C6.00483564 12.01774506 6.15988262 14.67244294 6 18 C4.23537317 14.91190305 4 13.76687864 4 10 C3.34 10 2.68 10 2 10 C1.34 6.7 0.68 3.4 0 0 Z " fill="#7C0EFD" transform="translate(600,308)"/>
<path d="M0 0 C0 0.99 0 1.98 0 3 C-0.47050781 3.46019531 -0.94101562 3.92039062 -1.42578125 4.39453125 C-3.41126695 6.41943105 -3.66730674 7.92647424 -4.1875 10.6875 C-4.34605469 11.49574219 -4.50460937 12.30398438 -4.66796875 13.13671875 C-4.77753906 13.75160156 -4.88710938 14.36648438 -5 15 C-5.33 15 -5.66 15 -6 15 C-6.92017937 5.11659193 -6.92017937 5.11659193 -4.6640625 2.37890625 C-3 1.3125 -3 1.3125 0 0 Z " fill="#7506FB" transform="translate(462,280)"/>
<path d="M0 0 C5.61 0 11.22 0 17 0 C17 0.33 17 0.66 17 1 C16.21753906 1.04898438 15.43507813 1.09796875 14.62890625 1.1484375 C13.61699219 1.22320313 12.60507812 1.29796875 11.5625 1.375 C10.55316406 1.44460938 9.54382813 1.51421875 8.50390625 1.5859375 C7.26447266 1.79089844 7.26447266 1.79089844 6 2 C5.67 2.66 5.34 3.32 5 4 C4.01 3.67 3.02 3.34 2 3 C2 2.34 2 1.68 2 1 C1.34 0.67 0.68 0.34 0 0 Z " fill="#9430FE" transform="translate(252,732)"/>
<path d="M0 0 C0.66 0.33 1.32 0.66 2 1 C1.67 2.98 1.34 4.96 1 7 C3.31 7 5.62 7 8 7 C7.01 8.485 7.01 8.485 6 10 C3.69 9.34 1.38 8.68 -1 8 C-1.04241723 5.66705225 -1.04092937 3.33297433 -1 1 C-0.67 0.67 -0.34 0.34 0 0 Z " fill="#7406FD" transform="translate(470,373)"/>
<path d="M0 0 C0.66 0 1.32 0 2 0 C2.12375 0.94875 2.2475 1.8975 2.375 2.875 C2.71687177 6.08667191 2.71687177 6.08667191 5 8 C4.34 8.66 3.68 9.32 3 10 C2.01 9.34 1.02 8.68 0 8 C-0.40843923 5.28796348 -0.13336867 2.7562858 0 0 Z " fill="#8A23FC" transform="translate(464,340)"/>
<path d="M0 0 C0.33 0.66 0.66 1.32 1 2 C-1.41556126 5.19199167 -3.68003538 7.74716687 -7 10 C-7.66 9.67 -8.32 9.34 -9 9 C-6.03 6.03 -3.06 3.06 0 0 Z " fill="#790DFD" transform="translate(300,716)"/>
<path d="M0 0 C1 2 1 2 0.00390625 5.0390625 C-0.47175781 6.22242188 -0.94742188 7.40578125 -1.4375 8.625 C-1.91058594 9.81351562 -2.38367188 11.00203125 -2.87109375 12.2265625 C-3.24363281 13.14179688 -3.61617187 14.05703125 -4 15 C-5.3480932 11.339671 -4.6336844 9.33449773 -3.125 5.8125 C-2.75632812 4.93207031 -2.38765625 4.05164063 -2.0078125 3.14453125 C-1 1 -1 1 0 0 Z " fill="#7D0EFC" transform="translate(556,464)"/>
<path d="M0 0 C0.99 0 1.98 0 3 0 C3 3.3 3 6.6 3 10 C2.67 8.68 2.34 7.36 2 6 C1.34 6 0.68 6 0 6 C-0.38218767 4.34385343 -0.71395102 2.67542976 -1 1 C-0.67 0.67 -0.34 0.34 0 0 Z " fill="#A54FFE" transform="translate(456,334)"/>
<path d="M0 0 C0.66 0.33 1.32 0.66 2 1 C1.34 2.65 0.68 4.3 0 6 C-0.99 6 -1.98 6 -3 6 C-3.33 6.99 -3.66 7.98 -4 9 C-4.66 8.67 -5.32 8.34 -6 8 C-4.02 5.36 -2.04 2.72 0 0 Z " fill="#760AFC" transform="translate(407,279)"/>
<path d="M0 0 C0.66 0 1.32 0 2 0 C2.33 3.3 2.66 6.6 3 10 C-0.56756757 5.24324324 -0.56756757 5.24324324 -1 2 C-0.67 1.34 -0.34 0.68 0 0 Z " fill="#8519FD" transform="translate(456,340)"/>
<path d="M0 0 C1.32 0 2.64 0 4 0 C2.70700306 2.88437779 1.34058637 4.87219421 -1 7 C-1.625 5.1875 -1.625 5.1875 -2 3 C-1.34 2.01 -0.68 1.02 0 0 Z " fill="#8619FD" transform="translate(500,462)"/>
<path d="M0 0 C1.485 0.99 1.485 0.99 3 2 C3 2.66 3 3.32 3 4 C3.99 4.33 4.98 4.66 6 5 C7.1875 8.0625 7.1875 8.0625 8 11 C2.19794344 5.35475578 2.19794344 5.35475578 0 2 C0 1.34 0 0.68 0 0 Z " fill="#780DFE" transform="translate(434,455)"/>
<path d="M0 0 C0 3.38023517 -0.87455622 5.83468937 -2 9 C-3.32 8.34 -4.64 7.68 -6 7 C-4.02 4.69 -2.04 2.38 0 0 Z " fill="#7A0EFD" transform="translate(495,279)"/>
<path d="M0 0 C-2.17424117 2.50037734 -3.73045798 3.43628586 -7 4 C-7 3.01 -7 2.02 -7 1 C-3.375 -1.125 -3.375 -1.125 0 0 Z " fill="#981DFE" transform="translate(796,671)"/>
<path d="M0 0 C0.33 1.32 0.66 2.64 1 4 C1.66 4 2.32 4 3 4 C2.67 6.64 2.34 9.28 2 12 C-0.13586678 8.79619983 -0.23132175 7.98060033 -0.125 4.3125 C-0.10695313 3.50425781 -0.08890625 2.69601562 -0.0703125 1.86328125 C-0.04710937 1.24839844 -0.02390625 0.63351562 0 0 Z " fill="#7109FC" transform="translate(386,359)"/>
<path d="M0 0 C0.66 0.66 1.32 1.32 2 2 C1.01 3.485 1.01 3.485 0 5 C0.66 6.32 1.32 7.64 2 9 C0.35 7.35 -1.3 5.7 -3 4 C-2.01 2.68 -1.02 1.36 0 0 Z " fill="#7C0FFD" transform="translate(375,668)"/>
<path d="M0 0 C0.66 0.33 1.32 0.66 2 1 C1.67 1.66 1.34 2.32 1 3 C2.32 2.67 3.64 2.34 5 2 C5.33 2.66 5.66 3.32 6 4 C4.02 4.33 2.04 4.66 0 5 C-0.5625 3.0625 -0.5625 3.0625 -1 1 C-0.67 0.67 -0.34 0.34 0 0 Z " fill="#F0E1FA" transform="translate(471,376)"/>
<path d="M0 0 C0.99 0 1.98 0 3 0 C3 0.66 3 1.32 3 2 C3.66 2 4.32 2 5 2 C4.34 3.32 3.68 4.64 3 6 C2.01 6 1.02 6 0 6 C0 4.02 0 2.04 0 0 Z " fill="#E7D4FA" transform="translate(466,340)"/>
<path d="M0 0 C0 0.66 0 1.32 0 2 C-1.8125 3.0625 -1.8125 3.0625 -4 4 C-4.99 3.67 -5.98 3.34 -7 3 C-4.49955934 -0.00052879 -4.2621484 0 0 0 Z " fill="#760DFB" transform="translate(447,225)"/>
</svg>
